# xmcd
#
# Track frame offsets: 
#        150
#        29683
#        36057
#        64037
#        125302
#        129998
#        177049
#        198200
#        202600
#        231802
#        243098
#
# Disc length: 3635 seconds
#
# Revision: 3
# Processed by: cddbd v1.5.2PL0 Copyright (c) Steve Scherf et al.
# Submitted via: ExactAudioCopy v1.0b3
#
DISCID=840e310b
DTITLE=John Coltrane - Sun Ship. The Complete Session [CD1)
DYEAR=2013
DGENRE=Jazz
TTITLE0=Dearly Beloved - Take 1 and 2, Fales Start and Alternate Version
TTITLE1=Dearly Beloved - Take 3, Breakdown
TTITLE2=Dearly Beloved - Take 4, Complete Version
TTITLE3=Attaining - Take 1, Alternate Version
TTITLE4=Attaining - Take 2, Breakdown
TTITLE5=Attaining - Take 3, Complete Version
TTITLE6=Attaining - Take 4, Insert 1
TTITLE7=Sun Ship - Take 1, Breakdown
TTITLE8=Sun Ship - Take 2, Complete Alternate Version
TTITLE9=Sun Ship - Take 3, Insert 1
TTITLE10=Sun Ship - Take 4, Complete Version
EXTD=YEAR: 1965
EXTT0=
EXTT1=
EXTT2=
EXTT3=
EXTT4=
EXTT5=
EXTT6=
EXTT7=
EXTT8=
EXTT9=
EXTT10=
PLAYORDER=
